<svg width="97" height="22" viewBox="0 0 97 22" fill="none" xmlns="http://www.w3.org/2000/svg">
<g opacity="0.8">
<path fill-rule="evenodd" clip-rule="evenodd" d="M9.92738 19.0943C4.44464 19.0943 0 14.8199 0 9.54717C0 4.27441 4.44464 0 9.92738 0V19.0943ZM11.4381 2.90566C16.9208 2.90566 21.3655 7.18008 21.3655 12.4528C21.3655 17.7256 16.9208 22 11.4381 22L11.4381 2.90566Z" fill="url(#paint0_linear_110_1303)"/>
</g>
<path fill-rule="evenodd" clip-rule="evenodd" d="M28.7628 15.4495C29.314 15.6915 29.9138 15.8125 30.5623 15.8125C31.2108 15.8125 31.7904 15.6999 32.301 15.4746C32.8198 15.2493 33.2575 14.9531 33.6142 14.5859C33.9709 14.2104 34.2262 13.8016 34.3802 13.3593L32.8968 12.6459C32.7266 13.1132 32.4388 13.5012 32.0335 13.8099C31.6282 14.1103 31.1378 14.2605 30.5623 14.2605C29.9949 14.2605 29.4923 14.1228 29.0546 13.8474C28.625 13.5721 28.2886 13.1924 28.0454 12.7085C27.8103 12.2162 27.6928 11.6446 27.6928 10.9937C27.6928 10.3429 27.8103 9.77549 28.0454 9.29153C28.2886 8.80757 28.625 8.42791 29.0546 8.15255C29.4923 7.87719 29.9949 7.73952 30.5623 7.73952C31.1378 7.73952 31.6282 7.89388 32.0335 8.20262C32.4388 8.50301 32.7266 8.88684 32.8968 9.35411L34.3802 8.64069C34.2262 8.19844 33.9709 7.79375 33.6142 7.42661C33.2575 7.05112 32.8198 6.75073 32.301 6.52544C31.7904 6.30015 31.2108 6.1875 30.5623 6.1875C29.9138 6.1875 29.314 6.30849 28.7628 6.55047C28.2116 6.78411 27.7293 7.11787 27.3159 7.55177C26.9106 7.97732 26.5944 8.48632 26.3675 9.07876C26.1486 9.66285 26.0392 10.3012 26.0392 10.9937C26.0392 11.6863 26.1527 12.3246 26.3796 12.9087C26.6066 13.4928 26.9227 14.0018 27.328 14.4357C27.7414 14.8696 28.2197 15.2075 28.7628 15.4495ZM81.6884 15.4495C82.2639 15.6915 82.884 15.8125 83.5487 15.8125C84.2215 15.8125 84.8416 15.6915 85.409 15.4495C85.9845 15.2075 86.4871 14.8696 86.9167 14.4357C87.3463 14.0018 87.6827 13.4928 87.9259 12.9087C88.1691 12.3163 88.2907 11.678 88.2907 10.9937C88.2907 10.3012 88.1691 9.66285 87.9259 9.07875C87.6909 8.49466 87.3585 7.98984 86.9289 7.56429C86.4993 7.13039 85.9967 6.79245 85.4212 6.55047C84.8457 6.30849 84.2215 6.1875 83.5487 6.1875C82.8759 6.1875 82.2517 6.30849 81.6762 6.55047C81.1007 6.78411 80.5981 7.11787 80.1685 7.55177C79.7389 7.98567 79.4066 8.49466 79.1715 9.07875C78.9364 9.66285 78.8189 10.3012 78.8189 10.9937C78.8189 11.678 78.9364 12.3163 79.1715 12.9087C79.4147 13.4928 79.7511 14.0018 80.1807 14.4357C80.6103 14.8696 81.1129 15.2075 81.6884 15.4495ZM84.7768 14.0227C84.4039 14.1812 83.9945 14.2605 83.5487 14.2605C83.111 14.2605 82.7057 14.1812 82.3328 14.0227C81.9599 13.8558 81.6316 13.6263 81.3479 13.3343C81.0723 13.0422 80.8575 12.696 80.7035 12.2954C80.5495 11.8949 80.4725 11.461 80.4725 10.9937C80.4725 10.5265 80.5495 10.0967 80.7035 9.70457C80.8575 9.30405 81.0723 8.95776 81.3479 8.66572C81.6316 8.36533 81.9599 8.13586 82.3328 7.97732C82.7057 7.81878 83.111 7.73952 83.5487 7.73952C83.9945 7.73952 84.4039 7.81878 84.7768 7.97732C85.1496 8.13586 85.4739 8.36533 85.7495 8.66572C86.0332 8.95776 86.248 9.30405 86.3939 9.70457C86.5479 10.0967 86.6249 10.5265 86.6249 10.9937C86.6249 11.461 86.5479 11.8949 86.3939 12.2954C86.248 12.696 86.0332 13.0422 85.7495 13.3343C85.4739 13.6263 85.1496 13.8558 84.7768 14.0227ZM91.3905 15.4871C91.8849 15.704 92.4199 15.8125 92.9955 15.8125C93.6196 15.8125 94.1668 15.6957 94.6369 15.462C95.1071 15.2284 95.4759 14.9072 95.7434 14.4983C96.0109 14.0894 96.1446 13.618 96.1446 13.084C96.1446 12.4581 95.9622 11.9325 95.5975 11.5069C95.2408 11.0814 94.7018 10.7476 93.9803 10.5056L92.3146 9.96741C91.9822 9.85893 91.735 9.70874 91.5729 9.51682C91.4107 9.31656 91.3297 9.0871 91.3297 8.82843C91.3297 8.59479 91.3864 8.39453 91.4999 8.22765C91.6215 8.05242 91.7877 7.91892 91.9984 7.82713C92.2092 7.727 92.4524 7.67693 92.728 7.67693C93.1981 7.67693 93.6115 7.80627 93.9682 8.06494C94.3248 8.31526 94.5923 8.67406 94.7707 9.14134L96.1325 8.51552C95.9704 8.04825 95.7231 7.64356 95.3908 7.30145C95.0665 6.95099 94.6775 6.67981 94.2235 6.48789C93.7696 6.28763 93.2711 6.1875 92.728 6.1875C92.1362 6.1875 91.6093 6.30432 91.1473 6.53795C90.6934 6.76325 90.3367 7.08033 90.0773 7.48919C89.826 7.89805 89.7004 8.3695 89.7004 8.90353C89.7004 9.51265 89.8787 10.0425 90.2354 10.4931C90.592 10.9437 91.123 11.2816 91.8282 11.5069L93.5669 12.0827C93.8831 12.1828 94.1181 12.3246 94.2722 12.5082C94.4343 12.6834 94.5153 12.9087 94.5153 13.1841C94.5153 13.4177 94.4545 13.618 94.333 13.7849C94.2195 13.9518 94.0533 14.0853 93.8344 14.1854C93.6237 14.2772 93.3724 14.3231 93.0806 14.3231C92.5618 14.3231 92.0957 14.1729 91.6823 13.8725C91.2689 13.5637 90.9528 13.1424 90.7339 12.6083L89.3599 13.2216C89.5221 13.739 89.7774 14.1937 90.126 14.5859C90.4826 14.9697 90.9041 15.2701 91.3905 15.4871ZM72.4837 15.8124C71.8028 15.8124 71.207 15.6539 70.6963 15.3368C70.1856 15.0197 69.7884 14.59 69.5047 14.0476C69.221 13.5052 69.0792 12.9045 69.0792 12.2453C69.0792 11.561 69.221 10.9561 69.5047 10.4304C69.7965 9.89638 70.1897 9.475 70.6841 9.16626C71.1867 8.85753 71.746 8.70316 72.3621 8.70316C72.8808 8.70316 73.3348 8.79077 73.7239 8.966C74.1211 9.14123 74.4575 9.38321 74.7331 9.69195C75.0087 10.0007 75.2194 10.3553 75.3653 10.7558C75.5112 11.148 75.5842 11.5736 75.5842 12.0325C75.5842 12.1493 75.5761 12.2703 75.5599 12.3955C75.5518 12.5206 75.5315 12.6291 75.4991 12.7209H70.7333C70.7538 12.9551 70.8063 13.1721 70.8908 13.3717C71.0367 13.6888 71.2475 13.935 71.5231 14.1102C71.8068 14.2854 72.1311 14.373 72.4958 14.373C72.8606 14.373 73.1686 14.2938 73.4199 14.1352C73.6793 13.9767 73.8819 13.7639 74.0278 13.4969L75.3167 14.1477C75.187 14.4732 74.9843 14.761 74.7087 15.0114C74.4331 15.2617 74.1049 15.4578 73.7239 15.5996C73.351 15.7415 72.9376 15.8124 72.4837 15.8124ZM70.8787 11.0687C70.8295 11.1921 70.792 11.3256 70.7662 11.4693H73.8819C73.8689 11.3145 73.8365 11.1685 73.7847 11.0312C73.6793 10.7308 73.501 10.493 73.2497 10.3178C73.0065 10.1425 72.7106 10.0549 72.3621 10.0549C72.0297 10.0549 71.7339 10.1425 71.4745 10.3178C71.2151 10.4846 71.0165 10.735 70.8787 11.0687ZM61.9706 8.85338L64.5727 15.6622H65.9831L68.5851 8.85338H66.8464L65.2728 13.2974L63.7094 8.85338H61.9706ZM59.515 15.6622V8.85332H61.1078V15.6622H59.515ZM59.515 8.08983V6.33755H61.1078V8.08983H59.515ZM55.769 15.1114C56.1824 15.5286 56.762 15.7372 57.5077 15.7372C57.6293 15.7372 57.7631 15.7289 57.909 15.7122C58.0549 15.6955 58.1846 15.6788 58.298 15.6621V14.2603C58.2251 14.2686 58.1481 14.277 58.067 14.2853C57.9941 14.2937 57.9292 14.2978 57.8725 14.2978C57.6131 14.2978 57.3983 14.2561 57.2281 14.1727C57.0659 14.0892 56.9444 13.9683 56.8633 13.8097C56.7903 13.6512 56.7539 13.4593 56.7539 13.234V10.3177H58.2737V8.85328H56.7539V7.30126H55.161V7.82695C55.161 8.16071 55.0719 8.41521 54.8935 8.59044C54.7152 8.76566 54.4639 8.85328 54.1397 8.85328H54.0181V10.3177H55.161V13.3216C55.161 14.0892 55.3637 14.6859 55.769 15.1114ZM49.5643 15.8124C49.1022 15.8124 48.701 15.7331 48.3605 15.5746C48.0201 15.416 47.7566 15.1908 47.5702 14.8987C47.3838 14.5983 47.2905 14.252 47.2905 13.8599C47.2905 13.4844 47.3716 13.1506 47.5337 12.8586C47.6958 12.5582 47.9471 12.3078 48.2876 12.1076C48.628 11.9073 49.0576 11.7655 49.5764 11.682L51.5462 11.3517V11.1313C51.5462 10.8393 51.4327 10.5973 51.2057 10.4054C50.9869 10.2051 50.695 10.105 50.3303 10.105C49.9898 10.105 49.6858 10.2009 49.4183 10.3929C49.159 10.5764 48.9685 10.8226 48.8469 11.1313L47.5459 10.4805C47.6756 10.1217 47.8782 9.81294 48.1538 9.55427C48.4375 9.28725 48.7699 9.07865 49.1509 8.92845C49.5318 8.77826 49.9452 8.70316 50.3911 8.70316C50.9342 8.70316 51.4124 8.80746 51.8258 9.01607C52.2392 9.21633 52.5594 9.50003 52.7864 9.86717C53.0214 10.226 53.139 10.6474 53.139 11.1313V15.6622H51.6313V14.9482C51.5473 15.0434 51.4582 15.1312 51.3638 15.2116C51.1287 15.4035 50.8612 15.5537 50.5613 15.6622C50.2614 15.7623 49.929 15.8124 49.5643 15.8124ZM51.5462 12.6047L49.8804 12.8961C49.5643 12.9545 49.3292 13.0588 49.1752 13.209C49.0212 13.3592 48.9442 13.5553 48.9442 13.7973C48.9442 14.0309 49.0293 14.2187 49.1995 14.3605C49.3778 14.494 49.5967 14.5608 49.8561 14.5608C50.1884 14.5608 50.4802 14.4898 50.7315 14.348C50.9909 14.1978 51.1895 13.9934 51.3273 13.7347C51.4732 13.476 51.5462 13.1923 51.5462 12.8836V12.6047ZM41.4864 15.3368C41.997 15.6539 42.5928 15.8124 43.2737 15.8124C43.7277 15.8124 44.1411 15.7415 44.5139 15.5996C44.8949 15.4578 45.2232 15.2617 45.4988 15.0114C45.7744 14.761 45.9771 14.4732 46.1068 14.1477L44.8179 13.4969C44.672 13.7639 44.4694 13.9767 44.21 14.1352C43.9587 14.2938 43.6507 14.373 43.2859 14.373C42.9211 14.373 42.5969 14.2854 42.3132 14.1102C42.0376 13.935 41.8268 13.6888 41.6809 13.3717C41.5964 13.1721 41.5438 12.9551 41.5234 12.7209H46.2891C46.3216 12.6291 46.3418 12.5206 46.3499 12.3955C46.3661 12.2703 46.3743 12.1493 46.3743 12.0325C46.3743 11.5736 46.3013 11.148 46.1554 10.7558C46.0095 10.3553 45.7987 10.0007 45.5231 9.69195C45.2475 9.38321 44.9111 9.14123 44.5139 8.966C44.1249 8.79077 43.6709 8.70316 43.1521 8.70316C42.5361 8.70316 41.9768 8.85753 41.4742 9.16626C40.9797 9.475 40.5866 9.89638 40.2948 10.4304C40.0111 10.9561 39.8692 11.561 39.8692 12.2453C39.8692 12.9045 40.0111 13.5052 40.2948 14.0476C40.5785 14.59 40.9757 15.0197 41.4864 15.3368ZM44.6719 11.4693H41.5562C41.5821 11.3256 41.6196 11.1921 41.6687 11.0687C41.8065 10.735 42.0051 10.4846 42.2645 10.3178C42.5239 10.1425 42.8198 10.0549 43.1521 10.0549C43.5007 10.0549 43.7966 10.1425 44.0397 10.3178C44.291 10.493 44.4694 10.7308 44.5747 11.0312C44.6266 11.1685 44.659 11.3145 44.6719 11.4693ZM35.589 15.6621V8.85328H37.0846V9.81165C37.2331 9.47651 37.4317 9.23215 37.6804 9.07858C38.0127 8.87832 38.4099 8.77819 38.8719 8.77819H39.261V10.2301H38.6896C38.2356 10.2301 37.8708 10.3761 37.5952 10.6681C37.3196 10.9518 37.1818 11.3524 37.1818 11.8697V15.6621H35.589Z" fill="black"/>
<defs>
<linearGradient id="paint0_linear_110_1303" x1="21.3655" y1="9.33962" x2="-0.415288" y2="11.526" gradientUnits="userSpaceOnUse">
<stop offset="0.03" stop-color="#F48B11"/>
<stop offset="0.2" stop-color="#FF0054"/>
<stop offset="0.505" stop-color="#9383F9"/>
<stop offset="0.8" stop-color="#FF0054"/>
<stop offset="0.97" stop-color="#F48B11"/>
</linearGradient>
</defs>
</svg>
