<svg width="21" height="20" viewBox="0 0 21 20" fill="none" xmlns="http://www.w3.org/2000/svg">
<circle cx="13" cy="10" r="2.5" fill="#1ABCFE"/>
<path d="M8 17.5C9.38071 17.5 10.5 16.3807 10.5 15V12.5H8C6.61929 12.5 5.5 13.6193 5.5 15C5.5 16.3807 6.61929 17.5 8 17.5Z" fill="#0ACF83"/>
<path d="M5.5 10C5.5 11.3807 6.61929 12.5 8 12.5H10.5V7.5H8C6.61929 7.5 5.5 8.61929 5.5 10Z" fill="#A259FF"/>
<path d="M5.5 5C5.5 6.38071 6.61929 7.5 8 7.5H10.5V2.5H8C6.61929 2.5 5.5 3.61929 5.5 5Z" fill="#F24E1E"/>
<path d="M15.5 5C15.5 3.61929 14.3807 2.5 13 2.5L10.5 2.5L10.5 7.5L13 7.5C14.3807 7.5 15.5 6.38071 15.5 5Z" fill="#FF7262"/>
</svg>
