<svg width="36" height="36" viewBox="0 0 36 36" fill="none" xmlns="http://www.w3.org/2000/svg">
<path d="M0.5 6C0.5 2.96243 2.96243 0.5 6 0.5H30C33.0376 0.5 35.5 2.96243 35.5 6V30C35.5 33.0376 33.0376 35.5 30 35.5H6C2.96243 35.5 0.5 33.0376 0.5 30V6Z" fill="white"/>
<path d="M0.5 6C0.5 2.96243 2.96243 0.5 6 0.5H30C33.0376 0.5 35.5 2.96243 35.5 6V30C35.5 33.0376 33.0376 35.5 30 35.5H6C2.96243 35.5 0.5 33.0376 0.5 30V6Z" stroke="#E2E8F0"/>
<path d="M10.5001 13C10.5001 12.0796 11.2463 11.3334 12.1667 11.3334H13.6207C14.0263 11.3334 14.418 11.4813 14.7223 11.7494L16.6161 13.4174C16.9204 13.6855 17.3121 13.8334 17.7177 13.8334H23.8333C24.7538 13.8334 25.5 14.5796 25.5 15.5V23C25.5 23.9205 24.7538 24.6667 23.8333 24.6667H12.1667C11.2463 24.6667 10.5001 23.9205 10.5001 23V13Z" stroke="#0F172A" stroke-width="1.5" stroke-linecap="round" stroke-linejoin="round"/>
<path d="M16.3333 19.0416H19.6666" stroke="#020617" stroke-width="1.5" stroke-linecap="round" stroke-linejoin="round"/>
<path d="M18 17.375L18 20.7083" stroke="#020617" stroke-width="1.5" stroke-linecap="round" stroke-linejoin="round"/>
</svg>
