<svg width="36" height="36" viewBox="0 0 36 36" fill="none" xmlns="http://www.w3.org/2000/svg">
<path d="M0 6C0 2.68629 2.68629 0 6 0H30C33.3137 0 36 2.68629 36 6V30C36 33.3137 33.3137 36 30 36H6C2.68629 36 0 33.3137 0 30V6Z" fill="#F1F5F9"/>
<path d="M21.3236 18.8333L24.5753 15.5817C25.7725 14.3844 25.8125 12.4834 24.6646 11.3354C23.5167 10.1875 21.6156 10.2275 20.4183 11.4247L17.1667 14.6764" stroke="#0F172A" stroke-width="1.5" stroke-linecap="round" stroke-linejoin="round"/>
<path d="M18.8333 21.3014L15.5903 24.5357C14.3963 25.7265 12.5574 25.8807 11.3553 24.6245C10.1533 23.3682 10.2504 21.5918 11.4444 20.4009L14.6874 17.1667" stroke="#020617" stroke-width="1.5" stroke-linecap="round" stroke-linejoin="round"/>
<path d="M15.5 20.5L20.5 15.5" stroke="#020617" stroke-width="1.5" stroke-linecap="round" stroke-linejoin="round"/>
</svg>
