<svg width="36" height="36" viewBox="0 0 36 36" fill="none" xmlns="http://www.w3.org/2000/svg">
<path d="M0 6C0 2.68629 2.68629 0 6 0H30C33.3137 0 36 2.68629 36 6V30C36 33.3137 33.3137 36 30 36H6C2.68629 36 0 33.3137 0 30V6Z" fill="#F1F5F9"/>
<path d="M14.2727 25.3676C13.7175 25.728 13 25.3103 13 24.6267V11.2847C13 10.8513 13.2798 10.5 13.625 10.5H22.375C22.7202 10.5 23 10.8513 23 11.2847V24.6267C23 25.3103 22.2825 25.728 21.7273 25.3676L18.4393 23.2332C18.1702 23.0585 17.8298 23.0585 17.5607 23.2332L14.2727 25.3676Z" stroke="#0F172A" stroke-width="1.5" stroke-linecap="round" stroke-linejoin="round"/>
</svg>
